<?xml version="1.0" standalone="no"?>
<!DOCTYPE svg PUBLIC "-//W3C//DTD SVG 20010904//EN"
 "http://www.w3.org/TR/2001/REC-SVG-20010904/DTD/svg10.dtd">
<svg version="1.0" xmlns="http://www.w3.org/2000/svg"
 width="512.000000pt" height="512.000000pt" viewBox="0 0 512.000000 512.000000"
 preserveAspectRatio="xMidYMid meet">

<g transform="translate(0.000000,512.000000) scale(0.100000,-0.100000)"
fill="#000000" stroke="none">
<path d="M1075 5106 c-91 -29 -158 -85 -197 -165 l-23 -46 0 -2335 0 -2335 23
-46 c31 -63 86 -117 152 -148 l55 -26 1460 0 c1179 0 1469 3 1505 13 60 18
117 58 157 110 68 89 63 -93 63 2432 0 2525 5 2343 -63 2432 -36 47 -92 89
-147 109 -51 20 -2925 24 -2985 5z m2785 -291 c53 -27 53 -103 0 -130 -24 -13
-84 -15 -364 -15 -228 0 -343 4 -360 11 -35 16 -52 61 -37 98 7 16 22 33 34
39 14 7 145 11 360 11 284 1 343 -1 367 -14z m17 -449 l28 -24 0 -431 0 -431
-28 -27 -27 -28 -1268 -3 c-906 -2 -1278 0 -1305 8 -67 20 -68 24 -65 495 l3
413 24 26 24 26 1293 0 1293 0 28 -24z m-1997 -1301 c15 -8 38 -27 49 -41 20
-26 21 -38 21 -308 0 -400 23 -376 -367 -376 -392 0 -373 -19 -373 368 0 393
-21 372 368 372 222 0 278 -3 302 -15z m981 0 c16 -9 39 -30 49 -48 19 -30 20
-52 20 -306 0 -392 21 -371 -375 -371 -386 0 -365 -22 -365 370 0 300 2 314
63 350 30 19 52 20 305 20 227 0 278 -3 303 -15z m984 -5 c61 -38 65 -58 65
-350 0 -281 -1 -290 -55 -340 l-27 -25 -278 -3 c-307 -3 -318 -1 -359 57 -20
28 -21 42 -21 311 0 398 -28 369 364 370 262 0 281 -1 311 -20z m-1968 -977
c71 -33 73 -44 73 -356 0 -394 28 -367 -371 -367 l-282 0 -33 25 c-51 39 -56
69 -52 366 3 295 1 286 73 330 27 17 54 19 293 19 226 0 269 -2 299 -17z m982
-1 c67 -36 71 -54 71 -355 0 -293 -2 -306 -59 -346 -28 -20 -42 -21 -314 -21
-392 0 -367 -25 -367 371 0 389 -21 368 370 369 238 0 269 -2 299 -18z m970 0
c19 -9 44 -30 55 -45 20 -27 21 -44 24 -298 4 -401 26 -379 -371 -379 -395 0
-367 -28 -367 372 0 390 -22 368 365 368 228 0 264 -2 294 -18z m-1918 -1011
l39 -39 0 -283 c0 -402 22 -379 -372 -379 -386 0 -368 -18 -368 368 0 394 -23
372 379 372 l283 0 39 -39z m950 24 c16 -9 39 -30 49 -48 18 -30 20 -52 20
-302 0 -394 19 -375 -368 -375 -294 0 -314 4 -352 65 -19 30 -20 49 -20 304 0
296 2 309 57 350 27 19 41 20 306 21 232 0 283 -3 308 -15z m828 -166 c54 -19
69 -83 29 -126 -21 -22 -27 -23 -180 -23 -88 0 -168 4 -178 10 -30 16 -42 67
-25 101 17 33 33 38 130 42 160 7 194 6 224 -4z m0 -220 c54 -19 69 -83 29
-126 -21 -22 -27 -23 -180 -23 -88 0 -168 4 -178 10 -10 5 -23 23 -29 40 -14
41 4 79 44 96 38 17 269 19 314 3z"/>
</g>
</svg>
